<mxfile host="app.diagrams.net" modified="2023-11-19T11:33:41.223Z" agent="Mozilla/5.0 (X11; Ubuntu; Linux x86_64; rv:109.0) Gecko/20100101 Firefox/113.0" version="22.1.3" etag="ssUMvxhXtcHZzxT-EGJN" type="github">
  <diagram name="Page-1" id="As4TE-Ei9jYs91xIvEWp">
    <mxGraphModel>
      <root>
        <mxCell id="0" />
        <mxCell id="1" parent="0" />
      </root>
    </mxGraphModel>
  </diagram>
</mxfile>
